<svg id="visual" viewBox="0 0 900 600"  xmlns="http://www.w3.org/2000/svg" xmlns:xlink="http://www.w3.org/1999/xlink" version="1.1" preserveAspectRatio="none"><path d="M0 85L6.5 95C13 105 26 125 39 146C52 167 65 189 78 173C91 157 104 103 117.2 101C130.3 99 143.7 149 156.8 160C170 171 183 143 196 113C209 83 222 51 235 66C248 81 261 143 274 147C287 151 300 97 313 103C326 109 339 175 352 178C365 181 378 121 391 114C404 107 417 153 430.2 150C443.3 147 456.7 95 469.8 91C483 87 496 131 509 164C522 197 535 219 548 219C561 219 574 197 587 161C600 125 613 75 626 89C639 103 652 181 665 205C678 229 691 199 704 197C717 195 730 221 743.2 206C756.3 191 769.7 135 782.8 123C796 111 809 143 822 147C835 151 848 127 861 110C874 93 887 83 893.5 78L900 73L900 0L893.5 0C887 0 874 0 861 0C848 0 835 0 822 0C809 0 796 0 782.8 0C769.7 0 756.3 0 743.2 0C730 0 717 0 704 0C691 0 678 0 665 0C652 0 639 0 626 0C613 0 600 0 587 0C574 0 561 0 548 0C535 0 522 0 509 0C496 0 483 0 469.8 0C456.7 0 443.3 0 430.2 0C417 0 404 0 391 0C378 0 365 0 352 0C339 0 326 0 313 0C300 0 287 0 274 0C261 0 248 0 235 0C222 0 209 0 196 0C183 0 170 0 156.8 0C143.7 0 130.3 0 117.2 0C104 0 91 0 78 0C65 0 52 0 39 0C26 0 13 0 6.5 0L0 0Z" fill="#5d6d7e"></path><path d="M0 121L6.5 136C13 151 26 181 39 215C52 249 65 287 78 289C91 291 104 257 117.2 263C130.3 269 143.7 315 156.8 346C170 377 183 393 196 393C209 393 222 377 235 348C248 319 261 277 274 253C287 229 300 223 313 249C326 275 339 333 352 316C365 299 378 207 391 225C404 243 417 371 430.2 414C443.3 457 456.7 415 469.8 389C483 363 496 353 509 375C522 397 535 451 548 434C561 417 574 329 587 264C600 199 613 157 626 189C639 221 652 327 665 358C678 389 691 345 704 347C717 349 730 397 743.2 389C756.3 381 769.7 317 782.8 326C796 335 809 417 822 404C835 391 848 283 861 236C874 189 887 203 893.5 210L900 217L900 71L893.5 76C887 81 874 91 861 108C848 125 835 149 822 145C809 141 796 109 782.8 121C769.7 133 756.3 189 743.2 204C730 219 717 193 704 195C691 197 678 227 665 203C652 179 639 101 626 87C613 73 600 123 587 159C574 195 561 217 548 217C535 217 522 195 509 162C496 129 483 85 469.8 89C456.7 93 443.3 145 430.2 148C417 151 404 105 391 112C378 119 365 179 352 176C339 173 326 107 313 101C300 95 287 149 274 145C261 141 248 79 235 64C222 49 209 81 196 111C183 141 170 169 156.8 158C143.7 147 130.3 97 117.2 99C104 101 91 155 78 171C65 187 52 165 39 144C26 123 13 103 6.5 93L0 83Z" fill="#425162"></path><path d="M0 601L6.5 601C13 601 26 601 39 601C52 601 65 601 78 601C91 601 104 601 117.2 601C130.3 601 143.7 601 156.8 601C170 601 183 601 196 601C209 601 222 601 235 601C248 601 261 601 274 601C287 601 300 601 313 601C326 601 339 601 352 601C365 601 378 601 391 601C404 601 417 601 430.2 601C443.3 601 456.7 601 469.8 601C483 601 496 601 509 601C522 601 535 601 548 601C561 601 574 601 587 601C600 601 613 601 626 601C639 601 652 601 665 601C678 601 691 601 704 601C717 601 730 601 743.2 601C756.3 601 769.7 601 782.8 601C796 601 809 601 822 601C835 601 848 601 861 601C874 601 887 601 893.5 601L900 601L900 215L893.5 208C887 201 874 187 861 234C848 281 835 389 822 402C809 415 796 333 782.8 324C769.7 315 756.3 379 743.2 387C730 395 717 347 704 345C691 343 678 387 665 356C652 325 639 219 626 187C613 155 600 197 587 262C574 327 561 415 548 432C535 449 522 395 509 373C496 351 483 361 469.8 387C456.7 413 443.3 455 430.2 412C417 369 404 241 391 223C378 205 365 297 352 314C339 331 326 273 313 247C300 221 287 227 274 251C261 275 248 317 235 346C222 375 209 391 196 391C183 391 170 375 156.8 344C143.7 313 130.3 267 117.2 261C104 255 91 289 78 287C65 285 52 247 39 213C26 179 13 149 6.5 134L0 119Z" fill="#283747"></path></svg>