<svg id="visual" viewBox="0 0 900 600" width="100%" height="600" xmlns="http://www.w3.org/2000/svg" xmlns:xlink="http://www.w3.org/1999/xlink" version="1.1" preserveAspectRatio="none"  transform="rotate(180)"><path d="M0 61L13.7 61C27.3 61 54.7 61 82 67C109.3 73 136.7 85 163.8 88C191 91 218 85 245.2 78C272.3 71 299.7 63 327 68C354.3 73 381.7 91 409 99C436.3 107 463.7 105 491 101C518.3 97 545.7 91 573 87C600.3 83 627.7 81 654.8 78C682 75 709 71 736.2 68C763.3 65 790.7 63 818 64C845.3 65 872.7 69 886.3 71L900 73L900 0L886.3 0C872.7 0 845.3 0 818 0C790.7 0 763.3 0 736.2 0C709 0 682 0 654.8 0C627.7 0 600.3 0 573 0C545.7 0 518.3 0 491 0C463.7 0 436.3 0 409 0C381.7 0 354.3 0 327 0C299.7 0 272.3 0 245.2 0C218 0 191 0 163.8 0C136.7 0 109.3 0 82 0C54.7 0 27.3 0 13.7 0L0 0Z" fill="#1e2c3b"></path><path d="M0 187L13.7 186C27.3 185 54.7 183 82 187C109.3 191 136.7 201 163.8 210C191 219 218 227 245.2 218C272.3 209 299.7 183 327 182C354.3 181 381.7 205 409 216C436.3 227 463.7 225 491 228C518.3 231 545.7 239 573 237C600.3 235 627.7 223 654.8 211C682 199 709 187 736.2 191C763.3 195 790.7 215 818 218C845.3 221 872.7 207 886.3 200L900 193L900 71L886.3 69C872.7 67 845.3 63 818 62C790.7 61 763.3 63 736.2 66C709 69 682 73 654.8 76C627.7 79 600.3 81 573 85C545.7 89 518.3 95 491 99C463.7 103 436.3 105 409 97C381.7 89 354.3 71 327 66C299.7 61 272.3 69 245.2 76C218 83 191 89 163.8 86C136.7 83 109.3 71 82 65C54.7 59 27.3 59 13.7 59L0 59Z" fill="#1c2a38"></path><path d="M0 253L13.7 251C27.3 249 54.7 245 82 250C109.3 255 136.7 269 163.8 280C191 291 218 299 245.2 290C272.3 281 299.7 255 327 249C354.3 243 381.7 257 409 268C436.3 279 463.7 287 491 291C518.3 295 545.7 295 573 288C600.3 281 627.7 267 654.8 254C682 241 709 229 736.2 236C763.3 243 790.7 269 818 277C845.3 285 872.7 275 886.3 270L900 265L900 191L886.3 198C872.7 205 845.3 219 818 216C790.7 213 763.3 193 736.2 189C709 185 682 197 654.8 209C627.7 221 600.3 233 573 235C545.7 237 518.3 229 491 226C463.7 223 436.3 225 409 214C381.7 203 354.3 179 327 180C299.7 181 272.3 207 245.2 216C218 225 191 217 163.8 208C136.7 199 109.3 189 82 185C54.7 181 27.3 183 13.7 184L0 185Z" fill="#1b2734"></path><path d="M0 277L13.7 278C27.3 279 54.7 281 82 289C109.3 297 136.7 311 163.8 320C191 329 218 333 245.2 321C272.3 309 299.7 281 327 277C354.3 273 381.7 293 409 304C436.3 315 463.7 317 491 321C518.3 325 545.7 331 573 327C600.3 323 627.7 309 654.8 296C682 283 709 271 736.2 277C763.3 283 790.7 307 818 314C845.3 321 872.7 311 886.3 306L900 301L900 263L886.3 268C872.7 273 845.3 283 818 275C790.7 267 763.3 241 736.2 234C709 227 682 239 654.8 252C627.7 265 600.3 279 573 286C545.7 293 518.3 293 491 289C463.7 285 436.3 277 409 266C381.7 255 354.3 241 327 247C299.7 253 272.3 279 245.2 288C218 297 191 289 163.8 278C136.7 267 109.3 253 82 248C54.7 243 27.3 247 13.7 249L0 251Z" fill="#192531"></path><path d="M0 319L13.7 320C27.3 321 54.7 323 82 332C109.3 341 136.7 357 163.8 366C191 375 218 377 245.2 365C272.3 353 299.7 327 327 323C354.3 319 381.7 337 409 345C436.3 353 463.7 351 491 356C518.3 361 545.7 373 573 371C600.3 369 627.7 353 654.8 338C682 323 709 309 736.2 313C763.3 317 790.7 339 818 348C845.3 357 872.7 353 886.3 351L900 349L900 299L886.3 304C872.7 309 845.3 319 818 312C790.7 305 763.3 281 736.2 275C709 269 682 281 654.8 294C627.7 307 600.3 321 573 325C545.7 329 518.3 323 491 319C463.7 315 436.3 313 409 302C381.7 291 354.3 271 327 275C299.7 279 272.3 307 245.2 319C218 331 191 327 163.8 318C136.7 309 109.3 295 82 287C54.7 279 27.3 277 13.7 276L0 275Z" fill="#18232e"></path><path d="M0 481L13.7 484C27.3 487 54.7 493 82 494C109.3 495 136.7 491 163.8 488C191 485 218 483 245.2 478C272.3 473 299.7 465 327 465C354.3 465 381.7 473 409 479C436.3 485 463.7 489 491 487C518.3 485 545.7 477 573 475C600.3 473 627.7 477 654.8 475C682 473 709 465 736.2 463C763.3 461 790.7 465 818 469C845.3 473 872.7 477 886.3 479L900 481L900 347L886.3 349C872.7 351 845.3 355 818 346C790.7 337 763.3 315 736.2 311C709 307 682 321 654.8 336C627.7 351 600.3 367 573 369C545.7 371 518.3 359 491 354C463.7 349 436.3 351 409 343C381.7 335 354.3 317 327 321C299.7 325 272.3 351 245.2 363C218 375 191 373 163.8 364C136.7 355 109.3 339 82 330C54.7 321 27.3 319 13.7 318L0 317Z" fill="#17212b"></path><path d="M0 529L13.7 529C27.3 529 54.7 529 82 530C109.3 531 136.7 533 163.8 534C191 535 218 535 245.2 531C272.3 527 299.7 519 327 518C354.3 517 381.7 523 409 526C436.3 529 463.7 529 491 527C518.3 525 545.7 521 573 519C600.3 517 627.7 517 654.8 515C682 513 709 509 736.2 511C763.3 513 790.7 521 818 522C845.3 523 872.7 517 886.3 514L900 511L900 479L886.3 477C872.7 475 845.3 471 818 467C790.7 463 763.3 459 736.2 461C709 463 682 471 654.8 473C627.7 475 600.3 471 573 473C545.7 475 518.3 483 491 485C463.7 487 436.3 483 409 477C381.7 471 354.3 463 327 463C299.7 463 272.3 471 245.2 476C218 481 191 483 163.8 486C136.7 489 109.3 493 82 492C54.7 491 27.3 485 13.7 482L0 479Z" fill="#161e28"></path><path d="M0 565L13.7 567C27.3 569 54.7 573 82 575C109.3 577 136.7 577 163.8 577C191 577 218 577 245.2 575C272.3 573 299.7 569 327 567C354.3 565 381.7 565 409 566C436.3 567 463.7 569 491 568C518.3 567 545.7 563 573 564C600.3 565 627.7 571 654.8 572C682 573 709 569 736.2 569C763.3 569 790.7 573 818 572C845.3 571 872.7 565 886.3 562L900 559L900 509L886.3 512C872.7 515 845.3 521 818 520C790.7 519 763.3 511 736.2 509C709 507 682 511 654.8 513C627.7 515 600.3 515 573 517C545.7 519 518.3 523 491 525C463.7 527 436.3 527 409 524C381.7 521 354.3 515 327 516C299.7 517 272.3 525 245.2 529C218 533 191 533 163.8 532C136.7 531 109.3 529 82 528C54.7 527 27.3 527 13.7 527L0 527Z" fill="#141c25"></path><path d="M0 601L13.7 601C27.3 601 54.7 601 82 601C109.3 601 136.7 601 163.8 601C191 601 218 601 245.2 601C272.3 601 299.7 601 327 601C354.3 601 381.7 601 409 601C436.3 601 463.7 601 491 601C518.3 601 545.7 601 573 601C600.3 601 627.7 601 654.8 601C682 601 709 601 736.2 601C763.3 601 790.7 601 818 601C845.3 601 872.7 601 886.3 601L900 601L900 557L886.3 560C872.7 563 845.3 569 818 570C790.7 571 763.3 567 736.2 567C709 567 682 571 654.8 570C627.7 569 600.3 563 573 562C545.7 561 518.3 565 491 566C463.7 567 436.3 565 409 564C381.7 563 354.3 563 327 565C299.7 567 272.3 571 245.2 573C218 575 191 575 163.8 575C136.7 575 109.3 575 82 573C54.7 571 27.3 567 13.7 565L0 563Z" fill="#131a22"></path></svg>