<svg id="visual" viewBox="0 0 900 600"  xmlns="http://www.w3.org/2000/svg" xmlns:xlink="http://www.w3.org/1999/xlink" version="1.1" preserveAspectRatio="none"><path d="M0 289L6.5 266C13 243 26 197 39 201C52 205 65 259 78 304C91 349 104 385 117.2 387C130.3 389 143.7 357 156.8 316C170 275 183 225 196 184C209 143 222 111 235 127C248 143 261 207 274 224C287 241 300 211 313 211C326 211 339 241 352 237C365 233 378 195 391 173C404 151 417 145 430.2 166C443.3 187 456.7 235 469.8 243C483 251 496 219 509 191C522 163 535 139 548 126C561 113 574 111 587 124C600 137 613 165 626 179C639 193 652 193 665 187C678 181 691 169 704 162C717 155 730 153 743.2 198C756.3 243 769.7 335 782.8 381C796 427 809 427 822 385C835 343 848 259 861 210C874 161 887 147 893.5 140L900 133L900 0L893.5 0C887 0 874 0 861 0C848 0 835 0 822 0C809 0 796 0 782.8 0C769.7 0 756.3 0 743.2 0C730 0 717 0 704 0C691 0 678 0 665 0C652 0 639 0 626 0C613 0 600 0 587 0C574 0 561 0 548 0C535 0 522 0 509 0C496 0 483 0 469.8 0C456.7 0 443.3 0 430.2 0C417 0 404 0 391 0C378 0 365 0 352 0C339 0 326 0 313 0C300 0 287 0 274 0C261 0 248 0 235 0C222 0 209 0 196 0C183 0 170 0 156.8 0C143.7 0 130.3 0 117.2 0C104 0 91 0 78 0C65 0 52 0 39 0C26 0 13 0 6.5 0L0 0Z" fill="#283747"></path><path d="M0 361L6.5 328C13 295 26 229 39 240C52 251 65 339 78 397C91 455 104 483 117.2 486C130.3 489 143.7 467 156.8 450C170 433 183 421 196 400C209 379 222 349 235 341C248 333 261 347 274 369C287 391 300 421 313 431C326 441 339 431 352 420C365 409 378 397 391 360C404 323 417 261 430.2 287C443.3 313 456.7 427 469.8 456C483 485 496 429 509 378C522 327 535 281 548 269C561 257 574 279 587 283C600 287 613 273 626 258C639 243 652 227 665 231C678 235 691 259 704 291C717 323 730 363 743.2 406C756.3 449 769.7 495 782.8 513C796 531 809 521 822 472C835 423 848 335 861 308C874 281 887 315 893.5 332L900 349L900 131L893.5 138C887 145 874 159 861 208C848 257 835 341 822 383C809 425 796 425 782.8 379C769.7 333 756.3 241 743.2 196C730 151 717 153 704 160C691 167 678 179 665 185C652 191 639 191 626 177C613 163 600 135 587 122C574 109 561 111 548 124C535 137 522 161 509 189C496 217 483 249 469.8 241C456.7 233 443.3 185 430.2 164C417 143 404 149 391 171C378 193 365 231 352 235C339 239 326 209 313 209C300 209 287 239 274 222C261 205 248 141 235 125C222 109 209 141 196 182C183 223 170 273 156.8 314C143.7 355 130.3 387 117.2 385C104 383 91 347 78 302C65 257 52 203 39 199C26 195 13 241 6.5 264L0 287Z" fill="#425162"></path><path d="M0 601L6.5 601C13 601 26 601 39 601C52 601 65 601 78 601C91 601 104 601 117.2 601C130.3 601 143.7 601 156.8 601C170 601 183 601 196 601C209 601 222 601 235 601C248 601 261 601 274 601C287 601 300 601 313 601C326 601 339 601 352 601C365 601 378 601 391 601C404 601 417 601 430.2 601C443.3 601 456.7 601 469.8 601C483 601 496 601 509 601C522 601 535 601 548 601C561 601 574 601 587 601C600 601 613 601 626 601C639 601 652 601 665 601C678 601 691 601 704 601C717 601 730 601 743.2 601C756.3 601 769.7 601 782.8 601C796 601 809 601 822 601C835 601 848 601 861 601C874 601 887 601 893.5 601L900 601L900 347L893.5 330C887 313 874 279 861 306C848 333 835 421 822 470C809 519 796 529 782.8 511C769.7 493 756.3 447 743.2 404C730 361 717 321 704 289C691 257 678 233 665 229C652 225 639 241 626 256C613 271 600 285 587 281C574 277 561 255 548 267C535 279 522 325 509 376C496 427 483 483 469.8 454C456.7 425 443.3 311 430.2 285C417 259 404 321 391 358C378 395 365 407 352 418C339 429 326 439 313 429C300 419 287 389 274 367C261 345 248 331 235 339C222 347 209 377 196 398C183 419 170 431 156.8 448C143.7 465 130.3 487 117.2 484C104 481 91 453 78 395C65 337 52 249 39 238C26 227 13 293 6.5 326L0 359Z" fill="#5d6d7e"></path></svg>