<svg id="visual" viewBox="0 0 900 600" width="100%" height="200px" xmlns="http://www.w3.org/2000/svg" xmlns:xlink="http://www.w3.org/1999/xlink" version="1.1" preserveAspectRatio="none"><path d="M0 43L13.7 44C27.3 45 54.7 47 82 45C109.3 43 136.7 37 163.8 36C191 35 218 39 245.2 40C272.3 41 299.7 39 327 39C354.3 39 381.7 41 409 41C436.3 41 463.7 39 491 39C518.3 39 545.7 41 573 40C600.3 39 627.7 35 654.8 35C682 35 709 39 736.2 40C763.3 41 790.7 39 818 38C845.3 37 872.7 37 886.3 37L900 37L900 0L886.3 0C872.7 0 845.3 0 818 0C790.7 0 763.3 0 736.2 0C709 0 682 0 654.8 0C627.7 0 600.3 0 573 0C545.7 0 518.3 0 491 0C463.7 0 436.3 0 409 0C381.7 0 354.3 0 327 0C299.7 0 272.3 0 245.2 0C218 0 191 0 163.8 0C136.7 0 109.3 0 82 0C54.7 0 27.3 0 13.7 0L0 0Z" fill="#1e2c3b"></path><path d="M0 115L13.7 112C27.3 109 54.7 103 82 99C109.3 95 136.7 93 163.8 95C191 97 218 103 245.2 107C272.3 111 299.7 113 327 114C354.3 115 381.7 115 409 115C436.3 115 463.7 115 491 115C518.3 115 545.7 115 573 111C600.3 107 627.7 99 654.8 98C682 97 709 103 736.2 107C763.3 111 790.7 113 818 110C845.3 107 872.7 99 886.3 95L900 91L900 35L886.3 35C872.7 35 845.3 35 818 36C790.7 37 763.3 39 736.2 38C709 37 682 33 654.8 33C627.7 33 600.3 37 573 38C545.7 39 518.3 37 491 37C463.7 37 436.3 39 409 39C381.7 39 354.3 37 327 37C299.7 37 272.3 39 245.2 38C218 37 191 33 163.8 34C136.7 35 109.3 41 82 43C54.7 45 27.3 43 13.7 42L0 41Z" fill="#1c2a38"></path><path d="M0 151L13.7 148C27.3 145 54.7 139 82 135C109.3 131 136.7 129 163.8 130C191 131 218 135 245.2 137C272.3 139 299.7 139 327 140C354.3 141 381.7 143 409 146C436.3 149 463.7 153 491 152C518.3 151 545.7 145 573 141C600.3 137 627.7 135 654.8 134C682 133 709 133 736.2 135C763.3 137 790.7 141 818 139C845.3 137 872.7 129 886.3 125L900 121L900 89L886.3 93C872.7 97 845.3 105 818 108C790.7 111 763.3 109 736.2 105C709 101 682 95 654.8 96C627.7 97 600.3 105 573 109C545.7 113 518.3 113 491 113C463.7 113 436.3 113 409 113C381.7 113 354.3 113 327 112C299.7 111 272.3 109 245.2 105C218 101 191 95 163.8 93C136.7 91 109.3 93 82 97C54.7 101 27.3 107 13.7 110L0 113Z" fill="#1b2734"></path><path d="M0 205L13.7 201C27.3 197 54.7 189 82 187C109.3 185 136.7 189 163.8 193C191 197 218 201 245.2 203C272.3 205 299.7 205 327 204C354.3 203 381.7 201 409 204C436.3 207 463.7 215 491 215C518.3 215 545.7 207 573 199C600.3 191 627.7 183 654.8 180C682 177 709 179 736.2 180C763.3 181 790.7 181 818 182C845.3 183 872.7 185 886.3 186L900 187L900 119L886.3 123C872.7 127 845.3 135 818 137C790.7 139 763.3 135 736.2 133C709 131 682 131 654.8 132C627.7 133 600.3 135 573 139C545.7 143 518.3 149 491 150C463.7 151 436.3 147 409 144C381.7 141 354.3 139 327 138C299.7 137 272.3 137 245.2 135C218 133 191 129 163.8 128C136.7 127 109.3 129 82 133C54.7 137 27.3 143 13.7 146L0 149Z" fill="#192531"></path><path d="M0 241L13.7 237C27.3 233 54.7 225 82 224C109.3 223 136.7 229 163.8 231C191 233 218 231 245.2 230C272.3 229 299.7 229 327 231C354.3 233 381.7 237 409 240C436.3 243 463.7 245 491 242C518.3 239 545.7 231 573 224C600.3 217 627.7 211 654.8 209C682 207 709 209 736.2 212C763.3 215 790.7 219 818 220C845.3 221 872.7 219 886.3 218L900 217L900 185L886.3 184C872.7 183 845.3 181 818 180C790.7 179 763.3 179 736.2 178C709 177 682 175 654.8 178C627.7 181 600.3 189 573 197C545.7 205 518.3 213 491 213C463.7 213 436.3 205 409 202C381.7 199 354.3 201 327 202C299.7 203 272.3 203 245.2 201C218 199 191 195 163.8 191C136.7 187 109.3 183 82 185C54.7 187 27.3 195 13.7 199L0 203Z" fill="#18232e"></path><path d="M0 385L13.7 377C27.3 369 54.7 353 82 343C109.3 333 136.7 329 163.8 337C191 345 218 365 245.2 366C272.3 367 299.7 349 327 342C354.3 335 381.7 339 409 343C436.3 347 463.7 351 491 352C518.3 353 545.7 351 573 351C600.3 351 627.7 353 654.8 354C682 355 709 355 736.2 355C763.3 355 790.7 355 818 351C845.3 347 872.7 339 886.3 335L900 331L900 215L886.3 216C872.7 217 845.3 219 818 218C790.7 217 763.3 213 736.2 210C709 207 682 205 654.8 207C627.7 209 600.3 215 573 222C545.7 229 518.3 237 491 240C463.7 243 436.3 241 409 238C381.7 235 354.3 231 327 229C299.7 227 272.3 227 245.2 228C218 229 191 231 163.8 229C136.7 227 109.3 221 82 222C54.7 223 27.3 231 13.7 235L0 239Z" fill="#17212b"></path><path d="M0 475L13.7 475C27.3 475 54.7 475 82 478C109.3 481 136.7 487 163.8 488C191 489 218 485 245.2 484C272.3 483 299.7 485 327 481C354.3 477 381.7 467 409 469C436.3 471 463.7 485 491 489C518.3 493 545.7 487 573 487C600.3 487 627.7 493 654.8 497C682 501 709 503 736.2 501C763.3 499 790.7 493 818 490C845.3 487 872.7 487 886.3 487L900 487L900 329L886.3 333C872.7 337 845.3 345 818 349C790.7 353 763.3 353 736.2 353C709 353 682 353 654.8 352C627.7 351 600.3 349 573 349C545.7 349 518.3 351 491 350C463.7 349 436.3 345 409 341C381.7 337 354.3 333 327 340C299.7 347 272.3 365 245.2 364C218 363 191 343 163.8 335C136.7 327 109.3 331 82 341C54.7 351 27.3 367 13.7 375L0 383Z" fill="#161e28"></path><path d="M0 529L13.7 529C27.3 529 54.7 529 82 530C109.3 531 136.7 533 163.8 531C191 529 218 523 245.2 521C272.3 519 299.7 521 327 520C354.3 519 381.7 515 409 518C436.3 521 463.7 531 491 535C518.3 539 545.7 537 573 535C600.3 533 627.7 531 654.8 532C682 533 709 537 736.2 537C763.3 537 790.7 533 818 532C845.3 531 872.7 533 886.3 534L900 535L900 485L886.3 485C872.7 485 845.3 485 818 488C790.7 491 763.3 497 736.2 499C709 501 682 499 654.8 495C627.7 491 600.3 485 573 485C545.7 485 518.3 491 491 487C463.7 483 436.3 469 409 467C381.7 465 354.3 475 327 479C299.7 483 272.3 481 245.2 482C218 483 191 487 163.8 486C136.7 485 109.3 479 82 476C54.7 473 27.3 473 13.7 473L0 473Z" fill="#141c25"></path><path d="M0 601L13.7 601C27.3 601 54.7 601 82 601C109.3 601 136.7 601 163.8 601C191 601 218 601 245.2 601C272.3 601 299.7 601 327 601C354.3 601 381.7 601 409 601C436.3 601 463.7 601 491 601C518.3 601 545.7 601 573 601C600.3 601 627.7 601 654.8 601C682 601 709 601 736.2 601C763.3 601 790.7 601 818 601C845.3 601 872.7 601 886.3 601L900 601L900 533L886.3 532C872.7 531 845.3 529 818 530C790.7 531 763.3 535 736.2 535C709 535 682 531 654.8 530C627.7 529 600.3 531 573 533C545.7 535 518.3 537 491 533C463.7 529 436.3 519 409 516C381.7 513 354.3 517 327 518C299.7 519 272.3 517 245.2 519C218 521 191 527 163.8 529C136.7 531 109.3 529 82 528C54.7 527 27.3 527 13.7 527L0 527Z" fill="#131a22"></path></svg>