<svg id="visual" viewBox="0 0 900 600" width="900" height="600" xmlns="http://www.w3.org/2000/svg" xmlns:xlink="http://www.w3.org/1999/xlink" version="1.1"><path d="M0 301L6.5 318C13 335 26 369 39 395C52 421 65 439 78 439C91 439 104 421 117.2 376C130.3 331 143.7 259 156.8 209C170 159 183 131 196 166C209 201 222 299 235 339C248 379 261 361 274 307C287 253 300 163 313 149C326 135 339 197 352 202C365 207 378 155 391 145C404 135 417 167 430.2 181C443.3 195 456.7 191 469.8 199C483 207 496 227 509 221C522 215 535 183 548 152C561 121 574 91 587 140C600 189 613 317 626 310C639 303 652 161 665 130C678 99 691 179 704 244C717 309 730 359 743.2 383C756.3 407 769.7 405 782.8 354C796 303 809 203 822 190C835 177 848 251 861 280C874 309 887 293 893.5 285L900 277L900 0L893.5 0C887 0 874 0 861 0C848 0 835 0 822 0C809 0 796 0 782.8 0C769.7 0 756.3 0 743.2 0C730 0 717 0 704 0C691 0 678 0 665 0C652 0 639 0 626 0C613 0 600 0 587 0C574 0 561 0 548 0C535 0 522 0 509 0C496 0 483 0 469.8 0C456.7 0 443.3 0 430.2 0C417 0 404 0 391 0C378 0 365 0 352 0C339 0 326 0 313 0C300 0 287 0 274 0C261 0 248 0 235 0C222 0 209 0 196 0C183 0 170 0 156.8 0C143.7 0 130.3 0 117.2 0C104 0 91 0 78 0C65 0 52 0 39 0C26 0 13 0 6.5 0L0 0Z" fill="#283747"></path><path d="M0 565L6.5 565C13 565 26 565 39 552C52 539 65 513 78 501C91 489 104 491 117.2 450C130.3 409 143.7 325 156.8 305C170 285 183 329 196 382C209 435 222 497 235 503C248 509 261 459 274 409C287 359 300 309 313 307C326 305 339 351 352 370C365 389 378 381 391 362C404 343 417 313 430.2 321C443.3 329 456.7 375 469.8 411C483 447 496 473 509 433C522 393 535 287 548 243C561 199 574 217 587 276C600 335 613 435 626 436C639 437 652 339 665 336C678 333 691 425 704 471C717 517 730 517 743.2 521C756.3 525 769.7 533 782.8 510C796 487 809 433 822 433C835 433 848 487 861 502C874 517 887 493 893.5 481L900 469L900 275L893.5 283C887 291 874 307 861 278C848 249 835 175 822 188C809 201 796 301 782.8 352C769.7 403 756.3 405 743.2 381C730 357 717 307 704 242C691 177 678 97 665 128C652 159 639 301 626 308C613 315 600 187 587 138C574 89 561 119 548 150C535 181 522 213 509 219C496 225 483 205 469.8 197C456.7 189 443.3 193 430.2 179C417 165 404 133 391 143C378 153 365 205 352 200C339 195 326 133 313 147C300 161 287 251 274 305C261 359 248 377 235 337C222 297 209 199 196 164C183 129 170 157 156.8 207C143.7 257 130.3 329 117.2 374C104 419 91 437 78 437C65 437 52 419 39 393C26 367 13 333 6.5 316L0 299Z" fill="#425162"></path><path d="M0 601L6.5 601C13 601 26 601 39 601C52 601 65 601 78 601C91 601 104 601 117.2 601C130.3 601 143.7 601 156.8 601C170 601 183 601 196 601C209 601 222 601 235 601C248 601 261 601 274 601C287 601 300 601 313 601C326 601 339 601 352 601C365 601 378 601 391 601C404 601 417 601 430.2 601C443.3 601 456.7 601 469.8 601C483 601 496 601 509 601C522 601 535 601 548 601C561 601 574 601 587 601C600 601 613 601 626 601C639 601 652 601 665 601C678 601 691 601 704 601C717 601 730 601 743.2 601C756.3 601 769.7 601 782.8 601C796 601 809 601 822 601C835 601 848 601 861 601C874 601 887 601 893.5 601L900 601L900 467L893.5 479C887 491 874 515 861 500C848 485 835 431 822 431C809 431 796 485 782.8 508C769.7 531 756.3 523 743.2 519C730 515 717 515 704 469C691 423 678 331 665 334C652 337 639 435 626 434C613 433 600 333 587 274C574 215 561 197 548 241C535 285 522 391 509 431C496 471 483 445 469.8 409C456.7 373 443.3 327 430.2 319C417 311 404 341 391 360C378 379 365 387 352 368C339 349 326 303 313 305C300 307 287 357 274 407C261 457 248 507 235 501C222 495 209 433 196 380C183 327 170 283 156.8 303C143.7 323 130.3 407 117.2 448C104 489 91 487 78 499C65 511 52 537 39 550C26 563 13 563 6.5 563L0 563Z" fill="#5d6d7e"></path></svg>